<?xml version="1.0" standalone="no"?><!DOCTYPE svg PUBLIC "-//W3C//DTD SVG 1.1//EN" "http://www.w3.org/Graphics/SVG/1.1/DTD/svg11.dtd"><svg class="icon" width="200px" height="200.00px" viewBox="0 0 1024 1024" version="1.1" xmlns="http://www.w3.org/2000/svg"><path fill="#333333" d="M 569.805 21.2736 a 82.0736 82.0736 0 0 0 -110.285 0 L 13.568 444.723 a 41.1392 41.1392 0 0 0 55.0912 61.1072 l 7.0912 -6.7328 V 941.056 a 82.2784 82.2784 0 0 0 82.2784 82.3808 h 239.437 v -247.706 a 57.9328 57.9328 0 0 1 57.9584 -58.0096 h 112.666 a 57.9328 57.9328 0 0 1 57.9584 58.0096 v 247.706 h 245.12 a 82.2784 82.2784 0 0 0 82.304 -82.3808 V 504.499 c 18.2784 16.5376 44.2112 15.2832 59.4176 -1.664 a 41.1392 41.1392 0 0 0 -2.9696 -58.112 L 569.805 21.2992 Z"  /></svg>